<?xml version="1.0" encoding="UTF-8"?>
<svg xmlns="http://www.w3.org/2000/svg"
     width="1600" height="900"
     viewBox="0 0 1600 900">
  <defs>
    <style>
      text { font-family: Arial, 'Segoe UI', Helvetica, sans-serif; }
    </style>
  </defs>
  <rect width="1600" height="900" fill="#0a0e27" rx="0"/>
  <text x="800.0" y="35" font-size="48" fill="#f1f5f9" text-anchor="middle" dominant-baseline="middle" font-weight="700">System Architecture</text>
<rect x="560" y="285" width="480" height="325" fill="#336791"/>
<ellipse cx="800.0" cy="610" rx="240.0" ry="20" fill="#336791"/>
<ellipse cx="800.0" cy="285" rx="240.0" ry="20" fill="#336791"/>
<ellipse cx="800.0" cy="285" rx="240.0" ry="20" fill="white" opacity="0.1"/>
<text x="800.0" y="447.5" font-size="24" fill="#f1f5f9" text-anchor="middle" dominant-baseline="middle" font-weight="600">PostgreSQL</text>
<text x="800.0" y="570" font-size="24" fill="#94a3b8" text-anchor="middle" dominant-baseline="middle" font-weight="normal">pgvector · pg_trgm · functions · gates · logs</text>
<rect x="50" y="350" width="420" height="110" rx="12" fill="#111836" stroke="#0d9488" stroke-width="2" />
<text x="260.0" y="397.0" font-size="30" fill="#f1f5f9" text-anchor="middle" dominant-baseline="middle" font-weight="600">Ingestion Pipeline</text>
<text x="260.0" y="419.0" font-size="28" fill="#94a3b8" text-anchor="middle" dominant-baseline="middle" font-weight="normal">embed &amp; store</text>
<line x1="470" y1="405.0" x2="560" y2="405.0" stroke="#0d9488" stroke-width="2"/>
<polygon points="560,405.0 552,401.0 552,409.0" fill="#0d9488"/>
<rect x="1130" y="350" width="420" height="110" rx="12" fill="#111836" stroke="#8b5cf6" stroke-width="2" />
<text x="1340.0" y="397.0" font-size="30" fill="#f1f5f9" text-anchor="middle" dominant-baseline="middle" font-weight="600">LLM (Claude/GPT)</text>
<text x="1340.0" y="419.0" font-size="28" fill="#94a3b8" text-anchor="middle" dominant-baseline="middle" font-weight="normal">generation</text>
<line x1="1040" y1="405.0" x2="1130" y2="405.0" stroke="#8b5cf6" stroke-width="2"/>
<polygon points="1130,405.0 1122,401.0 1122,409.0" fill="#8b5cf6"/>
<rect x="590" y="80" width="420" height="110" rx="12" fill="#111836" stroke="#2563eb" stroke-width="2" />
<text x="800.0" y="127.0" font-size="30" fill="#f1f5f9" text-anchor="middle" dominant-baseline="middle" font-weight="600">MCP Server</text>
<text x="800.0" y="149.0" font-size="28" fill="#94a3b8" text-anchor="middle" dominant-baseline="middle" font-weight="normal">typed tools</text>
<line x1="800.0" y1="190" x2="800.0" y2="265" stroke="#2563eb" stroke-width="2"/>
<polygon points="800.0,265 796.0,257 804.0,257" fill="#2563eb"/>
<rect x="590" y="700" width="420" height="110" rx="12" fill="#111836" stroke="#22c55e" stroke-width="2" />
<text x="800.0" y="747.0" font-size="30" fill="#f1f5f9" text-anchor="middle" dominant-baseline="middle" font-weight="600">Renderer</text>
<text x="800.0" y="769.0" font-size="28" fill="#94a3b8" text-anchor="middle" dominant-baseline="middle" font-weight="normal">reveal.js</text>
<line x1="800.0" y1="610" x2="800.0" y2="700" stroke="#22c55e" stroke-width="2"/>
<polygon points="800.0,700 796.0,692 804.0,692" fill="#22c55e"/>
</svg>