<?xml version="1.0" encoding="UTF-8"?>
<svg xmlns="http://www.w3.org/2000/svg"
     width="1600" height="900"
     viewBox="0 0 1600 900">
  <defs>
    <style>
      text { font-family: Arial, 'Segoe UI', Helvetica, sans-serif; }
    </style>
  </defs>
  <rect width="1600" height="900" fill="#0a0e27" rx="0"/>
  <path d="M 0,200 L 0,200.0 L 5,201.59957336746535 L 10,203.1965877587669 L 15,204.78848829155677 L 20,206.37272826456984 L 25,207.94677323180244 L 30,209.50810505708537 L 35,211.05422594256456 L 40,212.5826624246447 L 45,214.0909693310036 L 50,215.576733692346 L 55,217.03757860264 L 60,218.4711670216593 L 65,219.87520551374948 L 70,221.24744791683534 L 75,222.58569893580142 L 80,223.88781765449568 L 85,225.15172096073874 L 90,226.37538687885893 L 95,227.55685780442207 L 100,228.6942436359809 L 105,229.78572479883437 L 110,230.82955515595876 L 115,231.82406480145465 L 120,232.76766273203992 L 125,233.65883939231585 L 130,234.49616908973354 L 135,235.2783122753979 L 140,236.0040176870602 L 145,236.67212435087066 L 150,237.28156343868903 L 155,237.83135997798155 L 160,238.320634411569 L 165,238.74860400473062 L 170,239.11458409741266 L 175,239.4179891995384 L 180,239.65833392766746 L 185,239.8352337815056 L 190,239.94840575902333 L 195,239.99766880919864 L 200,239.9829441216602 L 205,239.90425525276694 L 210,239.76172808792305 L 215,239.55559064018806 L 220,239.28617268550474 L 225,238.95390523512782 L 230,238.55931984609794 L 235,238.1030477708638 L 240,237.585818947413 L 245,237.00846083152675 L 250,236.37189707302727 L 255,235.6771460381352 L 260,234.92531918030068 L 265,234.11761926211506 L 270,233.25533843114732 L 275,232.3398561527836 L 280,231.3726370033768 L 285,230.3552283272369 L 290,229.28925776121005 L 295,228.17643063080706 L 300,227.01852722204603 L 305,225.81739993337482 L 310,224.57497031222846 L 315,223.29322598096329 L 320,221.97421745708508 L 325,220.62005487285856 L 330,219.23290459954592 L 335,217.81498578167484 L 340,216.3685667868807 L 345,214.89596157700223 L 350,213.3995260062362 L 355,211.8816540522733 L 360,210.34477398644444 L 365,208.79134448900467 L 370,207.22385071576932 L 375,205.6448003223947 L 380,204.05671945266408 L 385,202.46214869719654 L 390,200.86363902904384 L 395,199.26374772267783 L 400,197.6650342628968 L 405,196.07005625019565 L 410,194.4813653091509 L 415,192.90150300636557 L 420,191.33299678450481 L 425,189.77835591892676 L 430,188.2400675033773 L 435,186.72059247117065 L 440,185.2223616582209 L 445,183.74777191422334 L 450,182.2991822682059 L 455,180.8789101545863 L 460,179.48922770577104 L 465,178.1323581172285 L 470,176.81047209085028 L 475,175.52568436229123 L 480,174.28005031784363 L 485,173.07556270625753 L 490,171.91414845076778 L 495,170.797665566428 L 500,169.72790018768288 L 505,168.7065637109339 L 510,167.73529005667038 L 515,166.81563305554516 L 520,165.94906396257701 L 525,165.13696910345647 L 530,164.38064765672047 L 535,163.6813095753438 L 540,163.04007365107248 L 545,162.45796572459568 L 550,161.93591704441934 L 555,161.47476277706733 L 560,161.07524067099305 L 565,160.73798987633938 L 570,160.46354992243477 L 575,160.25235985466142 L 580,160.10475753207626 L 585,160.02097908690865 L 590,160.00115854679902 L 595,160.04532762038343 L 600,160.15341564656637 L 605,160.3252497075635 L 610,160.5605549055332 L 615,160.85895480235445 L 620,161.21997202184764 L 625,161.64302901347446 L 630,162.12744897629563 L 635,162.6724569417081 L 640,163.27718101322932 L 645,163.9406537613458 L 650,164.66181377119386 L 655,165.43950734059703 L 660,166.27249032574332 L 665,167.15943013155012 L 670,168.09890784353183 L 675,169.0894204977605 L 680,170.12938348528752 L 685,171.2171330871797 L 690,172.35092913611493 L 695,173.52895780027853 L 700,174.74933448510717 L 705,176.01010684823825 L 710,177.30925792284125 L 715,178.64470934433422 L 720,180.0143246753239 L 725,181.4159128234497 L 730,182.84723154666418 L 735,184.30599104034184 L 740,185.78985760047829 L 745,187.2964573571186 L 750,188.82338007204297 L 755,190.36818299463363 L 760,191.92839476975485 L 765,193.50151939139383 L 770,195.085040195738 L 775,196.67642388730013 L 780,198.27312459165086 L 785,199.87258792827447 L 790,201.47225509703307 L 795,203.06956697170077 L 800,204.66196819401975 L 805,206.24691126172848 L 810,207.82186060402177 L 815,209.38429663792323 L 820,210.93171979908053 L 825,212.46165454053514 L 830,213.97165329306944 L 835,215.45930038079518 L 840,216.92221588571988 L 845,218.35805945510762 L 850,219.76453404554434 L 855,221.13938959771724 L 860,222.48042663602973 L 865,223.78549978729313 L 870,225.05252121286622 L 875,226.27946394875156 L 880,227.46436514830555 L 885,228.6053292223743 L 890,229.7005308718321 L 895,230.74821800767023 L 900,231.74671455396611 L 905,232.6944231292469 L 910,233.5898276019592 L 915,234.43149551595607 L 920,235.21808038212137 L 925,235.94832383246506 L 930,236.6210576332436 L 935,237.23520555388455 L 940,237.78978508872615 L 945,238.2839090288167 L 950,238.71678688125945 L 955,239.08772613383292 L 960,239.39613336286243 L 965,239.6415151825716 L 970,239.82347903439418 L 975,239.9417338149842 L 980,239.996090341919 L 985,239.98646165635097 L 990,239.91286316212296 L 995,239.77541260112562 L 1000,239.57432986493527 L 1005,239.30993664303446 L 1010,238.9826559081774 L 1015,238.59301123972364 L 1020,238.14162598602297 L 1025,237.62922226719093 L 1030,237.05661981987066 L 1035,236.4247346858292 L 1040,235.73457774648608 L 1045,234.9872531057186 L 1050,234.18395632353122 L 1055,233.32597250341465 L 1060,232.41467423645418 L 1065,231.45151940547717 L 1070,230.43804885275097 L 1075,229.37588391496453 L 1080,228.2667238294351 L 1085,227.11234301569147 L 1090,225.9145882367807 L 1095,224.67537564484178 L 1100,223.39668771567045 L 1105,222.0805700771813 L 1110,220.72912823683902 L 1115,219.34452421329598 L 1120,217.9289730776234 L 1125,216.48473940967025 L 1130,215.01413367521843 L 1135,213.5195085297307 L 1140,212.00325505460333 L 1145,210.4677989319465 L 1150,208.91559656400983 L 1155,207.34913114346332 L 1160,205.77090868081828 L 1165,204.18345399534542 L 1170,202.58930667590263 L 1175,200.9910170181343 L 1180,199.39114194454274 L 1185,197.79224091395702 L 1190,196.19687182694557 L 1195,194.60758693372017 L 1200,193.02692875108082 L 1205,191.45742599493045 L 1210,189.9015895348697 L 1215,188.36190837734037 L 1220,186.84084568374692 L 1225,185.34083482992287 L 1230,183.86427551324923 L 1235,182.41352991365 L 1240,180.9909189146088 L 1245,179.59871839024981 L 1250,178.2391555644252 L 1255,176.91440544763157 L 1260,175.62658735745757 L 1265,174.37776152812754 L 1270,173.1699258145665 L 1275,172.00501249625825 L 1280,170.88488518601054 L 1285,169.81133584857196 L 1290,168.78608193387075 L 1295,167.81076362946132 L 1300,166.88694123657385 L 1305,166.01609267396546 L 1310,165.19961111356508 L 1315,164.43880275169602 L 1320,163.7348847194401 L 1325,163.08898313548775 L 1330,162.50213130458826 L 1335,161.9752680644828 L 1340,161.50923628396393 L 1345,161.10478151446577 L 1350,160.76255079734034 L 1355,160.48309162872977 L 1360,160.26685108368906 L 1365,160.1141751009614 L 1370,160.02530792955002 L 1375,160.00039173797185 L 1380,160.03946638681828 L 1385,160.1424693649866 L 1390,160.30923588968454 L 1395,160.53949917004758 L 1400,160.83289083394732 L 1405,161.1889415173084 L 1410,161.60708161499088 L 1415,162.08664219203695 L 1420,162.6268560538241 L 1425,163.22685897341296 L 1430,163.88569107412602 L 1435,164.60229836514543 L 1440,165.37553442767367 L 1445,166.20416224895897 L 1450,167.08685620125163 L 1455,168.02220416252618 L 1460,169.00870977557466 L 1465,170.0447948418596 L 1470,171.1288018462946 L 1475,172.2589966089151 L 1480,173.4335710591962 L 1485,174.65064612858004 L 1490,175.90827475658435 L 1495,177.20444500568425 L 1500,178.5370832799826 L 1505,179.90405764252168 L 1510,181.30318122592692 L 1515,182.7322157309288 L 1520,184.1888750071636 L 1525,185.6708287105269 L 1530,187.17570603122647 L 1535,188.70109948657264 L 1540,190.2445687724367 L 1545,191.80364466721718 L 1550,193.37583298206764 L 1555,194.95861855106642 L 1560,196.54946925494625 L 1565,198.14584007194412 L 1570,199.7451771492939 L 1575,201.34492188884548 L 1580,202.9425150402763 L 1585,204.5354007953457 L 1590,206.12103087664318 L 1595,207.69686861428823 L 1600,209.26039300406157 L 1605,210.80910274047346 L 1600,900 L 0,900 Z" fill="#2563eb" opacity="0.15"/>
<path d="M 0,400 L 0,459.84969919624325 L 5,459.9870258513614 L 10,459.9744161824903 L 15,459.81190170723517 L 20,459.4998886271481 L 25,459.0391568124362 L 30,458.4308578526917 L 35,457.676512178518 L 40,456.77800526124486 L 45,455.73758290023216 L 50,454.5578456095409 L 55,453.24174211800255 L 60,451.7925619989324 L 65,450.2139274479099 L 70,448.5097842291754 L 75,446.6843918132753 L 80,444.7423127306032 L 85,442.68840116745065 L 90,440.52779083306905 L 95,438.2658821280702 L 100,435.9083286462374 L 105,433.461023043485 L 110,430.93008230928785 L 115,428.32183247739295 L 120,425.6427928140298 L 125,422.8996595231399 L 130,420.0992890093543 L 135,417.2486807405527 L 140,414.3549597528389 L 145,411.42535884166165 L 150,408.467200483592 L 155,405.48787853394623 L 160,402.4948397459974 L 165,399.49556515797104 L 170,396.4975513943452 L 175,393.5082919281935 L 180,390.5352583514051 L 185,387.58588169959603 L 190,384.6675338783901 L 195,381.78750923749425 L 200,378.9530063386228 L 205,376.1711099628424 L 210,373.44877340230886 L 215,370.792801080658 L 220,368.2098315454904 L 225,365.70632087545937 L 230,363.28852654343683 L 235,360.96249177608996 L 240,358.73403044896156 L 245,356.60871255480924 L 250,354.59185028152433 L 255,352.68848473442824 L 260,350.90337333613536 L 265,349.2409779354732 L 270,347.7054536551847 L 275,346.300638506285 L 280,345.03004379503267 L 285,343.8968453464931 L 290,342.90387556662904 L 295,342.05361636276166 L 300,341.3481929400942 L 305,340.7893684898058 L 310,340.3785397819921 L 315,340.11673367446724 L 320,340.0046045461539 L 325,340.04243266147733 L 330,340.23012346984956 L 335,340.5672078419972 L 340,341.05284324254006 L 345,341.68581583589076 L 350,342.4645435202117 L 355,343.38707988184564 L 360,344.45111906033605 L 365,345.6540015118777 L 370,346.9927206567908 L 375,348.4639303944045 L 380,350.063953466566 L 385,351.78879064887064 L 390,353.6341307466408 L 395,355.59536137066635 L 400,357.6675804657765 L 405,359.84560856342426 L 410,362.1240017276607 L 415,364.49706516213945 L 420,366.95886744414173 L 425,369.50325535004447 L 430,372.12386923517454 L 435,374.8141589296085 L 440,377.5674001101858 L 445,380.37671110781554 L 450,383.23507010806446 L 455,386.13533270203646 L 460,389.0702497436743 L 465,392.032485468849 L 470,395.0146358309502 L 475,398.0092470071466 L 480,401.008834029061 L 485,404.0058994912934 L 490,406.9929522910296 L 495,409.96252635189745 L 500,412.9071992852689 L 505,415.8196109423667 L 510,418.69248181080275 L 515,421.518631209568 L 520,424.2909952369959 L 525,427.00264442683704 L 530,429.6468010683165 L 535,432.21685614688073 L 540,434.706385863292 L 545,437.10916768978143 L 550,439.41919592312735 L 555,441.63069669578584 L 560,443.7381424075526 L 565,445.7362655416847 L 570,447.6200718309492 L 575,449.38485274069035 L 580,451.02619723771386 L 585,452.54000281557296 L 590,453.9224857486976 L 595,455.1701905497382 L 600,456.27999860648436 L 605,457.2491359767709 L 610,458.0751803218892 L 615,458.756066961172 L 620,459.29009403262 L 625,459.6759267466706 L 630,459.9126007224763 L 635,459.9995243983551 L 640,459.93648051038633 L 645,459.7236266354572 L 650,459.3614947974029 L 655,458.85099013722396 L 660,458.1933886507052 L 665,457.39033399909056 L 670,456.4438334007864 L 675,455.3562526143604 L 680,454.1303100253776 L 685,452.76906985185184 L 690,451.27593448529683 L 695,449.65463598651905 L 700,447.90922675740944 L 705,446.0440694120492 L 710,444.0638258724467 L 715,441.9734457161601 L 720,439.778153804931 L 725,437.4834372252516 L 730,435.0950315735057 L 735,432.61890661996523 L 740,430.0612513874731 L 745,427.42845868210935 L 750,424.7271091145054 L 755,421.96395465174464 L 760,419.145901740961 L 765,416.279994046818 L 770,413.37339484601483 L 775,410.43336912282604 L 780,407.4672654104237 L 785,404.48249742337197 L 790,401.4865255272015 L 795,398.4868380913805 L 800,395.49093277229144 L 805,392.50629777299486 L 810,389.5403931266212 L 815,386.600632050173 L 820,383.69436241534345 L 825,380.8288483826636 L 830,378.0112522448843 L 835,375.2486165249744 L 840,372.5478463734807 L 845,369.91569230924813 L 850,367.3587333466378 L 855,364.8833605514178 L 860,362.49576106642706 L 865,360.20190264694014 L 870,358.00751874438737 L 875,355.91809417571227 L 880,353.938851414185 L 885,352.07473753593996 L 890,350.33041185486076 L 895,348.710234276723 L 900,347.21825440169977 L 905,345.85820140247057 L 910,344.6334747032316 L 915,343.54713548290556 L 920,342.6018990237887 L 925,341.8001279247593 L 930,341.14382619601054 L 935,340.6346342500689 L 940,340.27382480161737 L 945,340.062299686371 L 950,340.00058760695777 L 955,340.0888428114373 L 960,340.32684470776064 L 965,340.71399841513613 L 970,341.249336250921 L 975,341.93152014932434 L 980,342.75884500587466 L 985,343.72924293929304 L 990,344.84028846011944 L 995,346.08920453317313 L 1000,347.47286951869427 L 1005,348.987824974818 L 1010,350.63028430187745 L 1015,352.39614220693136 L 1020,354.2809849648581 L 1025,356.2801014503698 L 1030,358.38849491337265 L 1035,360.60089546823906 L 1040,362.911773265778 L 1045,365.31535231497736 L 1050,367.8056249199739 L 1055,370.37636669616415 L 1060,373.0211521279239 L 1065,375.7333706290516 L 1070,378.5062430657904 L 1075,381.33283870113235 L 1080,384.20609251805195 L 1085,387.1188228783683 L 1090,390.06374947310144 L 1095,393.0335115194526 L 1100,396.02068615892796 L 1105,399.0178070106195 L 1110,402.0173828332682 L 1115,405.0119162494665 L 1120,407.99392248519666 L 1125,410.955948077868 L 1130,413.89058950609234 L 1135,416.7905116946305 L 1140,419.6484663482616 L 1145,422.4573100687455 L 1150,425.21002220959843 L 1155,427.89972242405327 L 1160,430.51968786234244 L 1165,433.06336997532196 L 1170,435.5244108824335 L 1175,437.8966592630943 L 1180,440.1741857317961 L 1185,442.3512976584799 L 1190,444.42255339714694 L 1195,446.3827758871397 L 1200,448.2270655930972 L 1205,449.9508127512424 L 1210,451.54970889138974 L 1215,453.0197576058781 L 1220,454.35728453850777 L 1225,455.5589465685176 L 1230,456.6217401666463 L 1235,457.5430089023905 L 1240,458.3204500836986 L 1245,458.9521205125006 L 1250,459.4364413416922 L 1255,459.7722020214299 L 1260,459.95856332487506 L 1265,459.99505944582415 L 1270,459.8815991629817 L 1275,459.61846606796576 L 1280,459.2063178564768 L 1285,458.64618468440096 L 1290,457.93946659295665 L 1295,457.08793000932087 L 1300,456.093703331481 L 1305,454.95927160834833 L 1310,453.68747032843027 L 1315,452.2814783325851 L 1320,450.744809868576 L 1325,449.08130580728164 L 1330,447.295124042519 L 1335,445.39072909847454 L 1340,443.37288097071854 L 1345,441.24662322869557 L 1350,439.017270409427 L 1355,436.69039473393644 L 1360,434.2718121795993 L 1365,431.76756794322785 L 1370,429.1839213312279 L 1375,426.52733011459236 L 1380,423.80443438783675 L 1385,421.02203997222136 L 1390,418.1871014047421 L 1395,415.30670455541036 L 1400,412.3880489162678 L 1405,409.43842960640563 L 1410,406.46521913796664 L 1415,403.47584898870366 L 1420,400.4777910271561 L 1425,397.4785388368696 L 1430,394.4855889863391 L 1435,391.50642229149315 L 1440,388.54848511754864 L 1445,385.6191707669766 L 1450,382.7258010000961 L 1455,379.8756077344863 L 1460,377.07571496895946 L 1465,374.33312097727355 L 1470,371.65468081609185 L 1475,369.0470891909134 L 1480,366.51686372279323 L 1485,364.07032865768576 L 1490,361.71359905912317 L 1495,359.45256552374025 L 1500,357.2928794578526 L 1505,355.2399389518818 L 1510,353.2988752879421 L 1515,351.4745401143071 L 1520,349.7714933188151 L 1525,348.19399163152565 L 1530,346.74597798510973 L 1535,345.43107165957247 L 1540,344.2525592359379 L 1545,343.2133863815074 L 1550,342.3161504872266 L 1555,341.56309417555957 L 1560,340.9560996951014 L 1565,340.4966842159367 L 1570,340.1859960375042 L 1575,340.024811718447 L 1580,340.01353413561935 L 1585,340.15219147710513 L 1590,340.440437171762 L 1595,340.8775507554688 L 1600,341.46243967191054 L 1605,342.19364200340044 L 1600,900 L 0,900 Z" fill="#0d9488" opacity="0.15"/>
<path d="M 0,600 L 0,611.2896006447894 L 5,606.5201721408215 L 10,601.7272780580877 L 15,596.9281676395811 L 20,592.1401125003913 L 25,587.3803444685401 L 30,582.6659935690096 L 35,578.01402637415 L 40,573.4411849423412 L 45,568.9639265646616 L 50,564.5983645364119 L 55,560.3602101666525 L 60,556.2647162344571 L 65,552.3266220953789 L 70,548.5601006356873 L 75,544.9787072652821 L 80,541.595331132856 L 85,538.4221487388781 L 90,535.4705801133407 L 95,532.7512477159844 L 100,530.2739382069129 L 105,528.0475672251857 L 110,526.080147302145 L 115,524.3787590249549 L 120,522.9495255541347 L 125,521.7975905867922 L 130,520.9270998448695 L 135,520.3411861550204 L 140,520.0419581738173 L 145,520.0304927988652 L 150,520.3068312931327 L 155,520.8699791364504 L 160,521.7179096047089 L 165,522.8475710638776 L 170,524.2548979525913 L 175,525.9348254137814 L 180,527.8813075226916 L 185,530.0873390456783 L 190,532.5449806514866 L 195,535.2453874842704 L 200,538.178840995521 L 205,541.3347839203475 L 210,544.7018582722299 L 215,548.2679462195053 L 220,552.0202136964765 L 225,555.945156592189 L 230,560.0286493506478 L 235,564.2559958075656 L 240,568.6119820806837 L 245,573.0809313233196 L 250,577.6467601440859 L 255,582.2930364897313 L 260,587.0030387827877 L 265,591.7598161011922 L 270,596.5462491833017 L 275,601.3451120387481 L 280,606.1391339434015 L 285,610.9110615953279 L 290,615.6437212080435 L 295,620.3200803176019 L 300,624.9233090810702 L 305,629.4368408457908 L 310,633.8444317714398 L 315,638.130219290312 L 320,642.2787791954345 L 325,646.275181151056 L 330,650.1050424257324 L 335,653.754579654629 L 340,657.2106584447487 L 345,660.4608406445643 L 350,663.4934291079322 L 355,666.2975097911868 L 360,668.8629910319121 L 365,671.1806398680287 L 370,673.2421152664872 L 375,675.0399981419791 L 380,676.5678180576334 L 385,677.8200765116011 L 390,678.7922667257249 L 395,679.4808898650733 L 400,679.8834676299684 L 405,679.9985511751885 L 410,679.8257263242459 L 415,679.3656150599759 L 420,678.6198732860689 L 425,677.5911848676069 L 430,676.283251972046 L 435,674.7007817454121 L 440,672.8494693716584 L 445,670.735977576153 L 450,668.3679126470624 L 455,665.7537970609282 L 460,662.9030388109543 L 465,659.8258975483911 L 470,656.5334476588703 L 475,653.0375384065746 L 480,649.3507512896836 L 485,645.4863547605655 L 490,641.4582564736781 L 495,637.2809532330295 L 500,632.9694788193406 L 505,628.5393498846663 L 510,624.0065101092066 L 515,619.3872728212739 L 520,614.6982622869266 L 525,609.956353880565 L 530,605.1786133518053 L 535,600.3822354072103 L 540,595.584481827914 L 545,590.8026193458501 L 550,586.0538575021615 L 555,581.3552867114388 L 560,576.7238167546809 L 565,572.1761159223443 L 570,567.7285510264984 L 575,563.3971284979743 L 580,559.1974367804996 L 585,555.1445902291347 L 590,551.2531747149151 L 595,547.5371951314677 L 600,544.0100249925166 L 605,540.6843583016752 L 610,537.5721638677414 L 615,534.6846422299111 L 620,532.0321853479309 L 625,529.6243392022664 L 630,527.4697694388801 L 635,525.5762301822642 L 640,523.9505361289656 L 645,522.598538022037 L 650,521.5251015946807 L 655,520.734090058863 L 660,520.2283502019228 L 665,520.0097021412116 L 670,520.0789327736366 L 675,520.4357929436809 L 680,521.0789983400952 L 685,522.0062341180309 L 690,523.2141632299818 L 695,524.6984384355519 L 700,526.4537179468259 L 705,528.4736846530378 L 710,530.7510688553474 L 715,533.2776744299061 L 720,536.0444083250524 L 725,539.0413132864775 L 730,542.2576036925892 L 735,545.6817043711027 L 740,549.3012922571601 L 745,553.1033407430574 L 750,557.0741665599652 L 755,561.1994790229198 L 760,565.4644314618575 L 765,569.853674653594 L 770,574.3514120624529 L 775,578.9414566907359 L 780,583.6072893344343 L 785,588.3321180345258 L 790,593.0989385098925 L 795,597.8905953543715 L 800,602.689843777691 L 805,607.4794116680936 L 810,612.2420617532863 L 815,616.9606536360074 L 820,621.6182054809469 L 825,626.1979551310154 L 830,630.6834204330088 L 835,635.058458555561 L 840,639.3073240859052 L 845,643.4147256963562 L 850,647.365881176578 L 855,651.1465706335773 L 860,654.7431876679641 L 865,658.1427883422946 L 870,661.3331377652693 L 875,664.3027541241297 L 880,667.0409500067846 L 885,669.537870864953 L 890,671.7845304798966 L 895,673.7728433031028 L 900,675.4956535555284 L 905,676.9467609806762 L 910,678.1209431588238 L 915,679.0139743020944 L 920,679.6226404627303 L 925,679.9447510998334 L 930,679.9791469629482 L 935,679.7257042641105 L 940,679.1853351233509 L 945,678.3599842860473 L 950,677.2526221239422 L 955,675.8672339450114 L 960,674.2088056506597 L 965,672.2833057918587 L 970,670.09766408881 L 975,667.6597464914347 L 980,664.9783268704483 L 985,662.0630554409007 L 990,658.9244240318228 L 995,655.5737283269723 L 1000,652.0230272125693 L 1005,648.2850993783287 L 1010,644.3733973279761 L 1015,640.3019989647617 L 1020,636.08555692621 L 1025,631.7392458504489 L 1030,627.2787077638989 L 1035,622.7199957868679 L 1040,618.0795163596554 L 1045,613.3739701970828 L 1050,608.6202921839555 L 1055,603.8355904277643 L 1060,599.0370846879737 L 1065,594.2420444034826 L 1070,589.4677265412934 L 1075,584.7313134900648 L 1080,580.0498512220694 L 1085,575.4401879460992 L 1090,570.9189134721089 L 1095,566.5022995058139 L 1100,562.2062410881225 L 1105,558.0461993901524 L 1110,554.0371460697096 L 1115,550.1935093894899 L 1120,546.5291222909132 L 1125,543.0571726104702 L 1130,539.7901556177552 L 1135,536.7398290459873 L 1140,533.9171707768672 L 1145,531.3323393320584 L 1150,528.9946373134796 L 1155,526.9124779239824 L 1160,525.0933546889062 L 1165,523.5438144874805 L 1170,522.2694339911276 L 1175,521.2747995934685 L 1180,520.5634909042587 L 1185,520.138067866658 L 1190,520.0000615442001 L 1195,520.1499686106168 L 1200,520.5872495623494 L 1205,521.3103306601782 L 1210,522.3166095929851 L 1215,523.6024648432625 L 1220,525.1632687206669 L 1225,526.9934040167054 L 1230,529.0862842206208 L 1235,531.434377223719 L 1240,534.0292324268248 L 1245,536.861511153314 L 1250,539.9210202582659 L 1255,543.1967488127757 L 1260,546.6769077314092 L 1265,550.3489722001801 L 1270,554.1997267523551 L 1275,558.2153128298614 L 1280,562.3812786591332 L 1285,566.6826312618883 L 1290,571.1038904136598 L 1295,575.6291443558885 L 1300,580.2421070610703 L 1305,584.9261768448682 L 1310,589.6644961142489 L 1315,594.4400120366139 L 1320,599.2355379115802 L 1325,604.0338150245449 L 1330,608.817574759419 L 1335,613.5696007469969 L 1340,618.2727908252963 L 1345,622.9102185888704 L 1350,627.4651943055916 L 1355,631.9213249816636 L 1360,636.2625733586956 L 1365,640.4733156305161 L 1370,644.538397672003 L 1375,648.4431895775681 L 1380,652.1736383130208 L 1385,655.716318291315 L 1390,659.0584796901636 L 1395,662.1880943376325 L 1400,665.0938990005684 L 1405,667.7654359200776 L 1410,670.1930904481637 L 1415,672.3681256500774 L 1420,674.2827137478484 L 1425,675.9299642918315 L 1430,677.3039489588856 L 1435,678.3997228879346 L 1440,679.2133424761278 L 1445,679.7418795715514 L 1450,679.9834320114136 L 1455,679.9371304677759 L 1460,679.6031415761961 L 1465,678.9826673360188 L 1470,678.0779407844773 L 1475,676.8922179601693 L 1480,675.4297661848356 L 1485,673.6958487056088 L 1490,671.6967057530081 L 1495,669.4395320828474 L 1500,666.9324510828844 L 1505,664.1844855373964 L 1510,661.2055251549002 L 1515,658.0062909758819 L 1520,654.5982967886274 L 1525,650.9938076920191 L 1530,647.2057959544235 L 1535,643.2478943275338 L 1540,639.1343469831866 L 1545,634.8799582497231 L 1550,630.5000393323952 L 1555,626.0103532095609 L 1560,621.4270579029828 L 1565,616.7666483263995 L 1570,612.0458969216488 L 1575,607.2817932959875 L 1580,602.4914830778541 L 1585,597.6922062111192 L 1590,592.9012349099058 L 1595,588.1358114972707 L 1600,583.4130863514592 L 1605,578.7500561830651 L 1600,900 L 0,900 Z" fill="#8b5cf6" opacity="0.15"/>
<circle cx="200" cy="267" r="3" fill="#06b6d4" opacity="0.6"/>
<circle cx="200" cy="267" r="9" fill="#06b6d4" opacity="0.1"/>
<circle cx="400" cy="200" r="2" fill="#06b6d4" opacity="0.6"/>
<circle cx="400" cy="200" r="6" fill="#06b6d4" opacity="0.1"/>
<circle cx="667" cy="373" r="4" fill="#06b6d4" opacity="0.6"/>
<circle cx="667" cy="373" r="12" fill="#06b6d4" opacity="0.1"/>
<circle cx="933" cy="160" r="2.5" fill="#06b6d4" opacity="0.6"/>
<circle cx="933" cy="160" r="7.5" fill="#06b6d4" opacity="0.1"/>
<circle cx="1200" cy="333" r="3" fill="#06b6d4" opacity="0.6"/>
<circle cx="1200" cy="333" r="9" fill="#06b6d4" opacity="0.1"/>
<circle cx="1400" cy="240" r="2" fill="#06b6d4" opacity="0.6"/>
<circle cx="1400" cy="240" r="6" fill="#06b6d4" opacity="0.1"/>
<circle cx="267" cy="533" r="2" fill="#06b6d4" opacity="0.6"/>
<circle cx="267" cy="533" r="6" fill="#06b6d4" opacity="0.1"/>
<circle cx="600" cy="467" r="3" fill="#06b6d4" opacity="0.6"/>
<circle cx="600" cy="467" r="9" fill="#06b6d4" opacity="0.1"/>
<circle cx="867" cy="400" r="2" fill="#06b6d4" opacity="0.6"/>
<circle cx="867" cy="400" r="6" fill="#06b6d4" opacity="0.1"/>
<circle cx="1133" cy="507" r="3" fill="#06b6d4" opacity="0.6"/>
<circle cx="1133" cy="507" r="9" fill="#06b6d4" opacity="0.1"/>
<circle cx="1333" cy="440" r="2.5" fill="#06b6d4" opacity="0.6"/>
<circle cx="1333" cy="440" r="7.5" fill="#06b6d4" opacity="0.1"/>
<text x="800.0" y="370.0" font-size="54" fill="#f1f5f9" text-anchor="middle" dominant-baseline="middle" font-weight="700">RAG &amp; MCP</text>
<text x="800.0" y="415.0" font-size="34" fill="#94a3b8" text-anchor="middle" dominant-baseline="middle" font-weight="normal">Under the hood</text>
</svg>