<?xml version="1.0" encoding="UTF-8"?>
<svg xmlns="http://www.w3.org/2000/svg"
     width="1600" height="900"
     viewBox="0 0 1600 900">
  <defs>
    <style>
      text { font-family: Arial, 'Segoe UI', Helvetica, sans-serif; }
    </style>
  </defs>
  <rect width="1600" height="900" fill="#0a0e27" rx="0"/>
  <line x1="0" y1="0" x2="0" y2="900" stroke="#162044" stroke-width="0.5"/>
<line x1="40" y1="0" x2="40" y2="900" stroke="#162044" stroke-width="0.5"/>
<line x1="80" y1="0" x2="80" y2="900" stroke="#162044" stroke-width="0.5"/>
<line x1="120" y1="0" x2="120" y2="900" stroke="#162044" stroke-width="0.5"/>
<line x1="160" y1="0" x2="160" y2="900" stroke="#162044" stroke-width="0.5"/>
<line x1="200" y1="0" x2="200" y2="900" stroke="#162044" stroke-width="0.5"/>
<line x1="240" y1="0" x2="240" y2="900" stroke="#162044" stroke-width="0.5"/>
<line x1="280" y1="0" x2="280" y2="900" stroke="#162044" stroke-width="0.5"/>
<line x1="320" y1="0" x2="320" y2="900" stroke="#162044" stroke-width="0.5"/>
<line x1="360" y1="0" x2="360" y2="900" stroke="#162044" stroke-width="0.5"/>
<line x1="400" y1="0" x2="400" y2="900" stroke="#162044" stroke-width="0.5"/>
<line x1="440" y1="0" x2="440" y2="900" stroke="#162044" stroke-width="0.5"/>
<line x1="480" y1="0" x2="480" y2="900" stroke="#162044" stroke-width="0.5"/>
<line x1="520" y1="0" x2="520" y2="900" stroke="#162044" stroke-width="0.5"/>
<line x1="560" y1="0" x2="560" y2="900" stroke="#162044" stroke-width="0.5"/>
<line x1="600" y1="0" x2="600" y2="900" stroke="#162044" stroke-width="0.5"/>
<line x1="640" y1="0" x2="640" y2="900" stroke="#162044" stroke-width="0.5"/>
<line x1="680" y1="0" x2="680" y2="900" stroke="#162044" stroke-width="0.5"/>
<line x1="720" y1="0" x2="720" y2="900" stroke="#162044" stroke-width="0.5"/>
<line x1="760" y1="0" x2="760" y2="900" stroke="#162044" stroke-width="0.5"/>
<line x1="800" y1="0" x2="800" y2="900" stroke="#162044" stroke-width="0.5"/>
<line x1="840" y1="0" x2="840" y2="900" stroke="#162044" stroke-width="0.5"/>
<line x1="880" y1="0" x2="880" y2="900" stroke="#162044" stroke-width="0.5"/>
<line x1="920" y1="0" x2="920" y2="900" stroke="#162044" stroke-width="0.5"/>
<line x1="960" y1="0" x2="960" y2="900" stroke="#162044" stroke-width="0.5"/>
<line x1="1000" y1="0" x2="1000" y2="900" stroke="#162044" stroke-width="0.5"/>
<line x1="1040" y1="0" x2="1040" y2="900" stroke="#162044" stroke-width="0.5"/>
<line x1="1080" y1="0" x2="1080" y2="900" stroke="#162044" stroke-width="0.5"/>
<line x1="1120" y1="0" x2="1120" y2="900" stroke="#162044" stroke-width="0.5"/>
<line x1="1160" y1="0" x2="1160" y2="900" stroke="#162044" stroke-width="0.5"/>
<line x1="1200" y1="0" x2="1200" y2="900" stroke="#162044" stroke-width="0.5"/>
<line x1="1240" y1="0" x2="1240" y2="900" stroke="#162044" stroke-width="0.5"/>
<line x1="1280" y1="0" x2="1280" y2="900" stroke="#162044" stroke-width="0.5"/>
<line x1="1320" y1="0" x2="1320" y2="900" stroke="#162044" stroke-width="0.5"/>
<line x1="1360" y1="0" x2="1360" y2="900" stroke="#162044" stroke-width="0.5"/>
<line x1="1400" y1="0" x2="1400" y2="900" stroke="#162044" stroke-width="0.5"/>
<line x1="1440" y1="0" x2="1440" y2="900" stroke="#162044" stroke-width="0.5"/>
<line x1="1480" y1="0" x2="1480" y2="900" stroke="#162044" stroke-width="0.5"/>
<line x1="1520" y1="0" x2="1520" y2="900" stroke="#162044" stroke-width="0.5"/>
<line x1="1560" y1="0" x2="1560" y2="900" stroke="#162044" stroke-width="0.5"/>
<line x1="1600" y1="0" x2="1600" y2="900" stroke="#162044" stroke-width="0.5"/>
<line x1="0" y1="0" x2="1600" y2="0" stroke="#162044" stroke-width="0.5"/>
<line x1="0" y1="40" x2="1600" y2="40" stroke="#162044" stroke-width="0.5"/>
<line x1="0" y1="80" x2="1600" y2="80" stroke="#162044" stroke-width="0.5"/>
<line x1="0" y1="120" x2="1600" y2="120" stroke="#162044" stroke-width="0.5"/>
<line x1="0" y1="160" x2="1600" y2="160" stroke="#162044" stroke-width="0.5"/>
<line x1="0" y1="200" x2="1600" y2="200" stroke="#162044" stroke-width="0.5"/>
<line x1="0" y1="240" x2="1600" y2="240" stroke="#162044" stroke-width="0.5"/>
<line x1="0" y1="280" x2="1600" y2="280" stroke="#162044" stroke-width="0.5"/>
<line x1="0" y1="320" x2="1600" y2="320" stroke="#162044" stroke-width="0.5"/>
<line x1="0" y1="360" x2="1600" y2="360" stroke="#162044" stroke-width="0.5"/>
<line x1="0" y1="400" x2="1600" y2="400" stroke="#162044" stroke-width="0.5"/>
<line x1="0" y1="440" x2="1600" y2="440" stroke="#162044" stroke-width="0.5"/>
<line x1="0" y1="480" x2="1600" y2="480" stroke="#162044" stroke-width="0.5"/>
<line x1="0" y1="520" x2="1600" y2="520" stroke="#162044" stroke-width="0.5"/>
<line x1="0" y1="560" x2="1600" y2="560" stroke="#162044" stroke-width="0.5"/>
<line x1="0" y1="600" x2="1600" y2="600" stroke="#162044" stroke-width="0.5"/>
<line x1="0" y1="640" x2="1600" y2="640" stroke="#162044" stroke-width="0.5"/>
<line x1="0" y1="680" x2="1600" y2="680" stroke="#162044" stroke-width="0.5"/>
<line x1="0" y1="720" x2="1600" y2="720" stroke="#162044" stroke-width="0.5"/>
<line x1="0" y1="760" x2="1600" y2="760" stroke="#162044" stroke-width="0.5"/>
<line x1="0" y1="800" x2="1600" y2="800" stroke="#162044" stroke-width="0.5"/>
<line x1="0" y1="840" x2="1600" y2="840" stroke="#162044" stroke-width="0.5"/>
<line x1="0" y1="880" x2="1600" y2="880" stroke="#162044" stroke-width="0.5"/>
<line x1="267" y1="0" x2="267" y2="267" stroke="#2563eb" stroke-width="2" opacity="0.3"/>
<line x1="267" y1="267" x2="533" y2="267" stroke="#2563eb" stroke-width="2" opacity="0.3"/>
<line x1="533" y1="267" x2="533" y2="533" stroke="#2563eb" stroke-width="2" opacity="0.3"/>
<line x1="533" y1="533" x2="800" y2="533" stroke="#2563eb" stroke-width="2" opacity="0.3"/>
<circle cx="267" cy="0" r="4" fill="#2563eb" opacity="0.4"/>
<circle cx="267" cy="267" r="4" fill="#2563eb" opacity="0.4"/>
<circle cx="533" cy="267" r="4" fill="#2563eb" opacity="0.4"/>
<circle cx="533" cy="533" r="4" fill="#2563eb" opacity="0.4"/>
<circle cx="800" cy="533" r="4" fill="#2563eb" opacity="0.4"/>
<line x1="1333" y1="0" x2="1333" y2="213" stroke="#2563eb" stroke-width="2" opacity="0.3"/>
<line x1="1333" y1="213" x2="1067" y2="213" stroke="#2563eb" stroke-width="2" opacity="0.3"/>
<line x1="1067" y1="213" x2="1067" y2="453" stroke="#2563eb" stroke-width="2" opacity="0.3"/>
<line x1="1067" y1="453" x2="800" y2="453" stroke="#2563eb" stroke-width="2" opacity="0.3"/>
<circle cx="1333" cy="0" r="4" fill="#2563eb" opacity="0.4"/>
<circle cx="1333" cy="213" r="4" fill="#2563eb" opacity="0.4"/>
<circle cx="1067" cy="213" r="4" fill="#2563eb" opacity="0.4"/>
<circle cx="1067" cy="453" r="4" fill="#2563eb" opacity="0.4"/>
<circle cx="800" cy="453" r="4" fill="#2563eb" opacity="0.4"/>
<line x1="0" y1="667" x2="400" y2="667" stroke="#2563eb" stroke-width="2" opacity="0.3"/>
<line x1="400" y1="667" x2="400" y2="400" stroke="#2563eb" stroke-width="2" opacity="0.3"/>
<line x1="400" y1="400" x2="667" y2="400" stroke="#2563eb" stroke-width="2" opacity="0.3"/>
<circle cx="0" cy="667" r="4" fill="#2563eb" opacity="0.4"/>
<circle cx="400" cy="667" r="4" fill="#2563eb" opacity="0.4"/>
<circle cx="400" cy="400" r="4" fill="#2563eb" opacity="0.4"/>
<circle cx="667" cy="400" r="4" fill="#2563eb" opacity="0.4"/>
<line x1="1600" y1="267" x2="1200" y2="267" stroke="#2563eb" stroke-width="2" opacity="0.3"/>
<line x1="1200" y1="267" x2="1200" y2="667" stroke="#2563eb" stroke-width="2" opacity="0.3"/>
<line x1="1200" y1="667" x2="933" y2="667" stroke="#2563eb" stroke-width="2" opacity="0.3"/>
<circle cx="1600" cy="267" r="4" fill="#2563eb" opacity="0.4"/>
<circle cx="1200" cy="267" r="4" fill="#2563eb" opacity="0.4"/>
<circle cx="1200" cy="667" r="4" fill="#2563eb" opacity="0.4"/>
<circle cx="933" cy="667" r="4" fill="#2563eb" opacity="0.4"/>
<circle cx="800.0" cy="450.0" r="80" fill="#2563eb" opacity="0.05"/>
<circle cx="800.0" cy="450.0" r="80" fill="none" stroke="#2563eb" stroke-width="1" opacity="0.2"/>
<text x="800.0" y="435.0" font-size="54" fill="#f1f5f9" text-anchor="middle" dominant-baseline="middle" font-weight="700">The Architecture</text>
<text x="800.0" y="485.0" font-size="34" fill="#94a3b8" text-anchor="middle" dominant-baseline="middle" font-weight="normal">How the pieces fit together</text>
</svg>