<?xml version="1.0" encoding="UTF-8"?>
<svg xmlns="http://www.w3.org/2000/svg"
     width="1600" height="900"
     viewBox="0 0 1600 900">
  <defs>
    <style>
      text { font-family: Arial, 'Segoe UI', Helvetica, sans-serif; }
    </style>
  </defs>
  <rect width="1600" height="900" fill="#0a0e27" rx="0"/>
  <rect x="0" y="0" width="133" height="900" fill="#ef4444" opacity="0.15"/>
<line x1="66.5" y1="0" x2="66.5" y2="15" stroke="#ef4444" stroke-width="1" opacity="0.1"/>
<line x1="66.5" y1="30" x2="66.5" y2="45" stroke="#ef4444" stroke-width="1" opacity="0.1"/>
<line x1="66.5" y1="60" x2="66.5" y2="75" stroke="#ef4444" stroke-width="1" opacity="0.1"/>
<line x1="66.5" y1="90" x2="66.5" y2="105" stroke="#ef4444" stroke-width="1" opacity="0.1"/>
<line x1="66.5" y1="120" x2="66.5" y2="135" stroke="#ef4444" stroke-width="1" opacity="0.1"/>
<line x1="66.5" y1="150" x2="66.5" y2="165" stroke="#ef4444" stroke-width="1" opacity="0.1"/>
<line x1="66.5" y1="180" x2="66.5" y2="195" stroke="#ef4444" stroke-width="1" opacity="0.1"/>
<line x1="66.5" y1="210" x2="66.5" y2="225" stroke="#ef4444" stroke-width="1" opacity="0.1"/>
<line x1="66.5" y1="240" x2="66.5" y2="255" stroke="#ef4444" stroke-width="1" opacity="0.1"/>
<line x1="66.5" y1="270" x2="66.5" y2="285" stroke="#ef4444" stroke-width="1" opacity="0.1"/>
<line x1="66.5" y1="300" x2="66.5" y2="315" stroke="#ef4444" stroke-width="1" opacity="0.1"/>
<line x1="66.5" y1="330" x2="66.5" y2="345" stroke="#ef4444" stroke-width="1" opacity="0.1"/>
<line x1="66.5" y1="360" x2="66.5" y2="375" stroke="#ef4444" stroke-width="1" opacity="0.1"/>
<line x1="66.5" y1="390" x2="66.5" y2="405" stroke="#ef4444" stroke-width="1" opacity="0.1"/>
<line x1="66.5" y1="420" x2="66.5" y2="435" stroke="#ef4444" stroke-width="1" opacity="0.1"/>
<line x1="66.5" y1="450" x2="66.5" y2="465" stroke="#ef4444" stroke-width="1" opacity="0.1"/>
<line x1="66.5" y1="480" x2="66.5" y2="495" stroke="#ef4444" stroke-width="1" opacity="0.1"/>
<line x1="66.5" y1="510" x2="66.5" y2="525" stroke="#ef4444" stroke-width="1" opacity="0.1"/>
<line x1="66.5" y1="540" x2="66.5" y2="555" stroke="#ef4444" stroke-width="1" opacity="0.1"/>
<line x1="66.5" y1="570" x2="66.5" y2="585" stroke="#ef4444" stroke-width="1" opacity="0.1"/>
<line x1="66.5" y1="600" x2="66.5" y2="615" stroke="#ef4444" stroke-width="1" opacity="0.1"/>
<line x1="66.5" y1="630" x2="66.5" y2="645" stroke="#ef4444" stroke-width="1" opacity="0.1"/>
<line x1="66.5" y1="660" x2="66.5" y2="675" stroke="#ef4444" stroke-width="1" opacity="0.1"/>
<line x1="66.5" y1="690" x2="66.5" y2="705" stroke="#ef4444" stroke-width="1" opacity="0.1"/>
<line x1="66.5" y1="720" x2="66.5" y2="735" stroke="#ef4444" stroke-width="1" opacity="0.1"/>
<line x1="66.5" y1="750" x2="66.5" y2="765" stroke="#ef4444" stroke-width="1" opacity="0.1"/>
<line x1="66.5" y1="780" x2="66.5" y2="795" stroke="#ef4444" stroke-width="1" opacity="0.1"/>
<line x1="66.5" y1="810" x2="66.5" y2="825" stroke="#ef4444" stroke-width="1" opacity="0.1"/>
<line x1="66.5" y1="840" x2="66.5" y2="855" stroke="#ef4444" stroke-width="1" opacity="0.1"/>
<line x1="66.5" y1="870" x2="66.5" y2="885" stroke="#ef4444" stroke-width="1" opacity="0.1"/>
<rect x="1467" y="0" width="133" height="900" fill="#ef4444" opacity="0.15"/>
<line x1="1533.5" y1="0" x2="1533.5" y2="15" stroke="#ef4444" stroke-width="1" opacity="0.1"/>
<line x1="1533.5" y1="30" x2="1533.5" y2="45" stroke="#ef4444" stroke-width="1" opacity="0.1"/>
<line x1="1533.5" y1="60" x2="1533.5" y2="75" stroke="#ef4444" stroke-width="1" opacity="0.1"/>
<line x1="1533.5" y1="90" x2="1533.5" y2="105" stroke="#ef4444" stroke-width="1" opacity="0.1"/>
<line x1="1533.5" y1="120" x2="1533.5" y2="135" stroke="#ef4444" stroke-width="1" opacity="0.1"/>
<line x1="1533.5" y1="150" x2="1533.5" y2="165" stroke="#ef4444" stroke-width="1" opacity="0.1"/>
<line x1="1533.5" y1="180" x2="1533.5" y2="195" stroke="#ef4444" stroke-width="1" opacity="0.1"/>
<line x1="1533.5" y1="210" x2="1533.5" y2="225" stroke="#ef4444" stroke-width="1" opacity="0.1"/>
<line x1="1533.5" y1="240" x2="1533.5" y2="255" stroke="#ef4444" stroke-width="1" opacity="0.1"/>
<line x1="1533.5" y1="270" x2="1533.5" y2="285" stroke="#ef4444" stroke-width="1" opacity="0.1"/>
<line x1="1533.5" y1="300" x2="1533.5" y2="315" stroke="#ef4444" stroke-width="1" opacity="0.1"/>
<line x1="1533.5" y1="330" x2="1533.5" y2="345" stroke="#ef4444" stroke-width="1" opacity="0.1"/>
<line x1="1533.5" y1="360" x2="1533.5" y2="375" stroke="#ef4444" stroke-width="1" opacity="0.1"/>
<line x1="1533.5" y1="390" x2="1533.5" y2="405" stroke="#ef4444" stroke-width="1" opacity="0.1"/>
<line x1="1533.5" y1="420" x2="1533.5" y2="435" stroke="#ef4444" stroke-width="1" opacity="0.1"/>
<line x1="1533.5" y1="450" x2="1533.5" y2="465" stroke="#ef4444" stroke-width="1" opacity="0.1"/>
<line x1="1533.5" y1="480" x2="1533.5" y2="495" stroke="#ef4444" stroke-width="1" opacity="0.1"/>
<line x1="1533.5" y1="510" x2="1533.5" y2="525" stroke="#ef4444" stroke-width="1" opacity="0.1"/>
<line x1="1533.5" y1="540" x2="1533.5" y2="555" stroke="#ef4444" stroke-width="1" opacity="0.1"/>
<line x1="1533.5" y1="570" x2="1533.5" y2="585" stroke="#ef4444" stroke-width="1" opacity="0.1"/>
<line x1="1533.5" y1="600" x2="1533.5" y2="615" stroke="#ef4444" stroke-width="1" opacity="0.1"/>
<line x1="1533.5" y1="630" x2="1533.5" y2="645" stroke="#ef4444" stroke-width="1" opacity="0.1"/>
<line x1="1533.5" y1="660" x2="1533.5" y2="675" stroke="#ef4444" stroke-width="1" opacity="0.1"/>
<line x1="1533.5" y1="690" x2="1533.5" y2="705" stroke="#ef4444" stroke-width="1" opacity="0.1"/>
<line x1="1533.5" y1="720" x2="1533.5" y2="735" stroke="#ef4444" stroke-width="1" opacity="0.1"/>
<line x1="1533.5" y1="750" x2="1533.5" y2="765" stroke="#ef4444" stroke-width="1" opacity="0.1"/>
<line x1="1533.5" y1="780" x2="1533.5" y2="795" stroke="#ef4444" stroke-width="1" opacity="0.1"/>
<line x1="1533.5" y1="810" x2="1533.5" y2="825" stroke="#ef4444" stroke-width="1" opacity="0.1"/>
<line x1="1533.5" y1="840" x2="1533.5" y2="855" stroke="#ef4444" stroke-width="1" opacity="0.1"/>
<line x1="1533.5" y1="870" x2="1533.5" y2="885" stroke="#ef4444" stroke-width="1" opacity="0.1"/>
<polygon points="100,900 1500,900 1550,800 50,800" fill="#1a1a2e" opacity="0.8"/>
<polygon points="800.0,0 550.0,800 1050.0,800" fill="white" opacity="0.04"/>
<ellipse cx="800.0" cy="800" rx="200" ry="30" fill="white" opacity="0.05"/>
<ellipse cx="800.0" cy="800" rx="120" ry="18" fill="white" opacity="0.08"/>
<text x="800.0" y="420.0" font-size="56" fill="#f1f5f9" text-anchor="middle" dominant-baseline="middle" font-weight="700">The Demo</text>
<text x="800.0" y="475.0" font-size="34" fill="#94a3b8" text-anchor="middle" dominant-baseline="middle" font-weight="normal">Live from PostgreSQL</text>
</svg>