<?xml version="1.0" encoding="UTF-8"?>
<svg xmlns="http://www.w3.org/2000/svg"
     width="1600" height="900"
     viewBox="0 0 1600 900">
  <defs>
    <style>
      text { font-family: Arial, 'Segoe UI', Helvetica, sans-serif; }
    </style>
  </defs>
  <rect width="1600" height="900" fill="#0a0e27" rx="0"/>
  <text x="800.0" y="42" font-size="52" fill="#f1f5f9" text-anchor="middle" dominant-baseline="middle" font-weight="700">MCP: The USB-C of AI</text>
<rect x="650.0" y="370.0" width="300" height="160" rx="12" fill="#111836" stroke="#8b5cf6" stroke-width="2" />
<text x="800.0" y="450.0" font-size="34" fill="#f1f5f9" text-anchor="middle" dominant-baseline="middle" font-weight="600">MCP Protocol</text>
<text x="200" y="85" font-size="28" fill="#94a3b8" text-anchor="middle" dominant-baseline="middle" font-weight="600">LLM Clients</text>
<text x="1400" y="85" font-size="28" fill="#94a3b8" text-anchor="middle" dominant-baseline="middle" font-weight="600">Data Sources</text>
<rect x="40" y="115.0" width="280" height="80" rx="12" fill="#111836" stroke="#2563eb" stroke-width="2" />
<text x="180.0" y="155.0" font-size="32" fill="#f1f5f9" text-anchor="middle" dominant-baseline="middle" font-weight="600">Claude</text>
<line x1="320" y1="155.0" x2="650.0" y2="450.0" stroke="#2563eb" stroke-width="2.5"/>
<polygon points="650.0,450.0 640.0,445.0 640.0,455.0" fill="#2563eb"/>
<rect x="40" y="457.5" width="280" height="80" rx="12" fill="#111836" stroke="#22c55e" stroke-width="2" />
<text x="180.0" y="497.5" font-size="32" fill="#f1f5f9" text-anchor="middle" dominant-baseline="middle" font-weight="600">GPT-5</text>
<line x1="320" y1="497.5" x2="650.0" y2="450.0" stroke="#22c55e" stroke-width="2.5"/>
<polygon points="650.0,450.0 640.0,445.0 640.0,455.0" fill="#22c55e"/>
<rect x="40" y="800.0" width="280" height="80" rx="12" fill="#111836" stroke="#f97316" stroke-width="2" />
<text x="180.0" y="840.0" font-size="32" fill="#f1f5f9" text-anchor="middle" dominant-baseline="middle" font-weight="600">Gemini</text>
<line x1="320" y1="840.0" x2="650.0" y2="450.0" stroke="#f97316" stroke-width="2.5"/>
<polygon points="650.0,450.0 640.0,445.0 640.0,455.0" fill="#f97316"/>
<rect x="1280" y="115.0" width="280" height="80" rx="12" fill="#111836" stroke="#336791" stroke-width="2" />
<text x="1420.0" y="155.0" font-size="32" fill="#f1f5f9" text-anchor="middle" dominant-baseline="middle" font-weight="600">PostgreSQL</text>
<line x1="950.0" y1="450.0" x2="1280" y2="155.0" stroke="#336791" stroke-width="2.5"/>
<polygon points="1280,155.0 1270,150.0 1270,160.0" fill="#336791"/>
<rect x="1280" y="457.5" width="280" height="80" rx="12" fill="#111836" stroke="#0d9488" stroke-width="2" />
<text x="1420.0" y="497.5" font-size="32" fill="#f1f5f9" text-anchor="middle" dominant-baseline="middle" font-weight="600">REST APIs</text>
<line x1="950.0" y1="450.0" x2="1280" y2="497.5" stroke="#0d9488" stroke-width="2.5"/>
<polygon points="1280,497.5 1270,492.5 1270,502.5" fill="#0d9488"/>
<rect x="1280" y="800.0" width="280" height="80" rx="12" fill="#111836" stroke="#06b6d4" stroke-width="2" />
<text x="1420.0" y="840.0" font-size="32" fill="#f1f5f9" text-anchor="middle" dominant-baseline="middle" font-weight="600">File System</text>
<line x1="950.0" y1="450.0" x2="1280" y2="840.0" stroke="#06b6d4" stroke-width="2.5"/>
<polygon points="1280,840.0 1270,835.0 1270,845.0" fill="#06b6d4"/>
</svg>