<?xml version="1.0" encoding="UTF-8"?>
<svg xmlns="http://www.w3.org/2000/svg"
     width="1600" height="900"
     viewBox="0 0 1600 900">
  <defs>
    <style>
      text { font-family: Arial, 'Segoe UI', Helvetica, sans-serif; }
    </style>
  </defs>
  <rect width="1600" height="900" fill="#0a0e27" rx="0"/>
  <text x="800.0" y="42" font-size="52" fill="#f1f5f9" text-anchor="middle" dominant-baseline="middle" font-weight="700">MCP as the Bouncer</text>
<rect x="700.0" y="85" width="200" height="785" rx="12" fill="#111836" stroke="#8b5cf6" stroke-width="3" />
<text x="800.0" y="452.5" font-size="52" fill="#8b5cf6" text-anchor="middle" dominant-baseline="middle" font-weight="800">MCP</text>
<text x="800.0" y="497.5" font-size="32" fill="#94a3b8" text-anchor="middle" dominant-baseline="middle" font-weight="normal">Gateway</text>
<text x="370.0" y="95" font-size="34" fill="#22c55e" text-anchor="middle" dominant-baseline="middle" font-weight="700">✅ ALLOWED</text>
<text x="1250.0" y="95" font-size="34" fill="#ef4444" text-anchor="middle" dominant-baseline="middle" font-weight="700">🚫 BLOCKED</text>
<rect x="40" y="352.5" width="620.0" height="80" rx="8" fill="#111836" stroke="#22c55e" stroke-width="2" />
<text x="65" y="392.5" font-size="32" fill="#22c55e" text-anchor="start" dominant-baseline="middle" font-weight="600">✓  search_chunks</text>
<line x1="660.0" y1="392.5" x2="700.0" y2="392.5" stroke="#22c55e" stroke-width="2"/>
<polygon points="700.0,392.5 690.0,387.5 690.0,397.5" fill="#22c55e"/>
<rect x="40" y="462.5" width="620.0" height="80" rx="8" fill="#111836" stroke="#22c55e" stroke-width="2" />
<text x="65" y="502.5" font-size="32" fill="#22c55e" text-anchor="start" dominant-baseline="middle" font-weight="600">✓  validate_structure</text>
<line x1="660.0" y1="502.5" x2="700.0" y2="502.5" stroke="#22c55e" stroke-width="2"/>
<polygon points="700.0,502.5 690.0,497.5 690.0,507.5" fill="#22c55e"/>
<rect x="40" y="572.5" width="620.0" height="80" rx="8" fill="#111836" stroke="#22c55e" stroke-width="2" />
<text x="65" y="612.5" font-size="32" fill="#22c55e" text-anchor="start" dominant-baseline="middle" font-weight="600">✓  check_novelty</text>
<line x1="660.0" y1="612.5" x2="700.0" y2="612.5" stroke="#22c55e" stroke-width="2"/>
<polygon points="700.0,612.5 690.0,607.5 690.0,617.5" fill="#22c55e"/>
<rect x="940.0" y="352.5" width="620.0" height="80" rx="8" fill="#111836" stroke="#ef4444" stroke-width="2" />
<text x="965.0" y="392.5" font-size="32" fill="#ef4444" text-anchor="start" dominant-baseline="middle" font-weight="600">✗  DROP TABLE</text>
<line x1="900.0" y1="392.5" x2="940.0" y2="392.5" stroke="#ef4444" stroke-width="2"/>
<text x="920.0" y="390.5" font-size="28" fill="#ef4444" text-anchor="middle" dominant-baseline="middle" font-weight="700">✗</text>
<rect x="940.0" y="462.5" width="620.0" height="80" rx="8" fill="#111836" stroke="#ef4444" stroke-width="2" />
<text x="965.0" y="502.5" font-size="32" fill="#ef4444" text-anchor="start" dominant-baseline="middle" font-weight="600">✗  raw SQL</text>
<line x1="900.0" y1="502.5" x2="940.0" y2="502.5" stroke="#ef4444" stroke-width="2"/>
<text x="920.0" y="500.5" font-size="28" fill="#ef4444" text-anchor="middle" dominant-baseline="middle" font-weight="700">✗</text>
<rect x="940.0" y="572.5" width="620.0" height="80" rx="8" fill="#111836" stroke="#ef4444" stroke-width="2" />
<text x="965.0" y="612.5" font-size="32" fill="#ef4444" text-anchor="start" dominant-baseline="middle" font-weight="600">✗  DELETE *</text>
<line x1="900.0" y1="612.5" x2="940.0" y2="612.5" stroke="#ef4444" stroke-width="2"/>
<text x="920.0" y="610.5" font-size="28" fill="#ef4444" text-anchor="middle" dominant-baseline="middle" font-weight="700">✗</text>
</svg>